<svg width="156" height="40" viewBox="0 0 156 40" fill="none" xmlns="http://www.w3.org/2000/svg">
<g clip-path="url(#clip0_13_26)">
<mask id="mask0_13_26" style="mask-type:luminance" maskUnits="userSpaceOnUse" x="-20" y="-20" width="195" height="80">
<path d="M-19.1004 -19.1876H174.851V59.0096H-19.1004V-19.1876Z" fill="white"/>
</mask>
<g mask="url(#mask0_13_26)">
<path d="M19.7285 0.362762C9.01924 0.362762 0.336609 9.11587 0.336609 19.9103C0.336609 30.7062 9.01924 39.4593 19.7285 39.4593C30.4432 39.4593 39.1259 30.7062 39.1259 19.9103C39.1259 9.11587 30.4432 0.362762 19.7285 0.362762ZM19.7285 37.949C9.8444 37.949 1.83503 29.8731 1.83503 19.9103C1.83503 9.94759 9.8444 1.87311 19.7285 1.87311C29.6153 1.87311 37.6261 9.94759 37.6261 19.9103C37.6261 29.8731 29.6153 37.949 19.7285 37.949Z" fill="#595959"/>
</g>
<mask id="mask1_13_26" style="mask-type:luminance" maskUnits="userSpaceOnUse" x="-20" y="-20" width="195" height="80">
<path d="M-19.1004 -19.1876H174.851V59.0096H-19.1004V-19.1876Z" fill="white"/>
</mask>
<g mask="url(#mask1_13_26)">
<path fill-rule="evenodd" clip-rule="evenodd" d="M19.7285 34.5724C20.399 34.5724 20.8055 34.1172 20.8301 33.4952C20.9765 33.7752 21.1667 33.9655 21.4527 34.0235C21.7333 34.08 22.037 34.04 22.2943 33.9255C22.5558 33.8187 22.7685 33.6176 22.8909 33.3614C23.0182 33.0993 22.9758 32.8276 22.8855 32.5131C23.2002 32.971 23.7353 33.0897 24.2046 32.869C24.8492 32.5655 25.0845 32.0138 24.8204 31.3835C24.024 29.4772 23.233 27.6055 22.4339 25.6993C22.3614 25.5269 22.2998 25.3504 22.219 25.1779C22.1493 25.0262 22.1014 24.9145 22.0357 24.8207C21.9846 24.7517 21.921 24.6932 21.8482 24.6483C23.0839 24.7862 23.6778 25.2772 24.0062 25.4952C24.0924 25.5531 24.0883 25.5614 24.4222 25.4566C24.4956 25.4346 24.5726 25.4275 24.6487 25.4358C24.7248 25.4441 24.7985 25.4676 24.8656 25.5048C25.0147 25.589 25.168 25.68 25.298 25.7835C25.7427 26.1324 26.1943 26.469 26.613 26.8455C26.8087 27.0207 27.0906 27.3228 27.0509 27.5917C27.0195 27.8455 26.4119 28.4262 26.2313 28.5986C25.8002 29.011 26.4516 29.7835 27.3219 29.7117C27.0893 29.4662 27.0345 29.2579 27.0633 29.0731C27.1508 29.0717 27.3164 29.0883 27.4724 28.9476C27.6599 28.7766 27.575 28.2745 27.7502 28.1035C28.0554 27.8028 29.0557 27.7752 29.655 27.749C29.9055 27.7393 30.1696 27.6704 30.1504 27.2759C30.5308 27.3021 30.6102 27.5876 30.6102 27.8441C30.9359 27.6566 31.2178 26.7628 30.0095 26.5572C30.2134 26.3724 30.5514 26.3021 30.7607 26.5407C30.9564 26.2124 30.461 25.5683 29.5661 25.9324C29.5675 25.9283 29.1652 25.3959 27.9555 26.7614C27.8036 26.6455 27.6517 26.5324 27.5135 26.4028C27.0468 25.9724 25.8673 24.811 25.8673 24.811C25.8673 24.1572 25.7701 22.891 24.9135 22.1324C24.5481 21.8097 24.2005 21.6386 23.4274 21.4966C23.4274 21.4966 23.8009 20.9062 23.8598 20.6745C24.533 21.3531 25.8864 21.5559 25.8864 20.4097C26.9894 21.5241 28.0143 20.9241 28.0143 20.2248C28.0485 20.5655 28.1347 20.9407 28.2497 21.2621C28.3879 21.6359 28.8928 23.0717 30.1969 23.0717C30.227 23.5697 30.2298 25.2124 31.7884 25.5779C31.8541 25.5959 31.9403 25.6179 31.9827 25.6703C32.6108 26.4579 35.2273 27.2883 35.5475 27.0648C35.3436 26.9186 35.0234 26.7241 34.9727 25.7972C34.9399 25.1862 34.8728 22.0138 34.8728 17.5435C34.8728 15.9628 34.7045 10.8386 29.6783 10.1241C28.9161 10.0152 28.1662 10.0731 27.5162 10.56C26.6322 11.2248 26.197 12.3476 26.717 13.6166C26.7335 13.6621 26.7471 13.7076 26.7704 13.7476C26.9469 14.0497 26.8758 14.3117 26.6459 14.5421C26.2258 14.9614 25.7373 15.2455 25.1488 15.3145C24.7766 15.3572 24.4701 15.1931 24.2238 14.9366C23.66 14.3517 23.2632 13.6648 23.1386 12.8552C22.9005 11.3131 23.2837 10.549 23.3056 10.5007C23.7147 9.67449 24.5837 9.06759 25.5895 8.9807C26.0506 8.11173 27.3739 8.45518 27.3739 8.45518C27.705 8.52828 27.8214 8.62483 27.9048 8.78897C27.9048 8.78897 28.485 7.89656 27.9377 7.53932C27.3917 7.18207 26.1669 7.03449 26.1669 7.03449C26.1669 6.4538 25.2145 6.00138 23.493 6.31173C21.4117 6.68552 20.9656 5.86621 20.9656 5.86621C20.8794 6.87035 21.6388 7.38759 21.8838 7.52828C21.0942 8.39173 19.9913 10.1172 19.7285 12.5655C19.4658 10.1172 18.3628 8.39173 17.5733 7.52828C17.8168 7.38759 18.5777 6.87035 18.4915 5.86621C18.4915 5.86621 18.044 6.68552 15.9626 6.31173C14.2425 6.00138 13.2901 6.4538 13.2901 7.03449C13.2901 7.03449 12.0654 7.18207 11.518 7.53932C10.972 7.89656 11.5508 8.78897 11.5508 8.78897C11.6357 8.62483 11.752 8.52828 12.0832 8.45518C12.0832 8.45518 13.4064 8.11173 13.8676 8.9807C14.8734 9.06759 15.7423 9.67449 16.1515 10.5007C16.1734 10.549 16.5798 11.32 16.3184 12.8552C16.1802 13.6635 15.797 14.3517 15.2333 14.9366C14.9869 15.1931 14.6804 15.3572 14.3082 15.3145C13.7198 15.2455 13.2313 14.9614 12.8112 14.5421C12.5813 14.3117 12.5101 14.0497 12.6866 13.7476C12.7099 13.7076 12.7236 13.6621 12.74 13.6166C13.26 12.3476 12.8248 11.2248 11.9408 10.56C11.2908 10.0731 10.5409 10.0152 9.77873 10.1241C4.75252 10.8386 4.58283 15.9628 4.58283 17.5435C4.58283 22.0138 4.51578 25.1862 4.48294 25.7972C4.43231 26.7241 4.1121 26.9172 3.9082 27.0648C4.22978 27.2883 6.84484 26.4593 7.47431 25.6703C7.51673 25.6179 7.60294 25.5945 7.66863 25.5779C9.22726 25.211 9.22999 23.5697 9.2601 23.0717C10.5642 23.0717 11.0692 21.6359 11.2074 21.2621C11.3223 20.9407 11.4085 20.5655 11.4427 20.2248C11.4427 20.9241 12.4677 21.5228 13.5706 20.4097C13.5706 21.5559 14.924 21.3545 15.5973 20.6745C15.6561 20.9062 16.0297 21.4966 16.0297 21.4966C15.2565 21.6386 14.9089 21.8097 14.5422 22.1324C13.6869 22.8924 13.5898 24.1586 13.5898 24.811C13.5898 24.811 12.4102 25.9738 11.9436 26.4028C11.8054 26.5324 11.6535 26.6455 11.5016 26.7614C10.2919 25.3972 9.8882 25.9283 9.89094 25.9324C8.99599 25.5683 8.50062 26.2124 8.69631 26.5407C8.90431 26.3021 9.24368 26.3724 9.44757 26.5572C8.23926 26.7614 8.51978 27.6566 8.84684 27.8441C8.84684 27.5862 8.92484 27.3007 9.30663 27.2759C9.28747 27.6704 9.55157 27.7393 9.80199 27.749C10.4 27.7752 11.4003 27.8028 11.7068 28.1035C11.8806 28.2745 11.7958 28.7766 11.9846 28.9476C12.1406 29.0883 12.3062 29.0717 12.3924 29.0731C12.4212 29.2579 12.3678 29.4662 12.1352 29.7117C13.0055 29.7848 13.6568 29.011 13.2258 28.5986C13.0451 28.4262 12.4362 27.8441 12.4061 27.5917C12.3664 27.3228 12.6483 27.0207 12.844 26.8455C13.2627 26.4704 13.7143 26.1324 14.159 25.7835C14.289 25.68 14.4423 25.5876 14.5915 25.5048C14.6585 25.4676 14.7322 25.4441 14.8083 25.4358C14.8845 25.4275 14.9614 25.4346 15.0348 25.4566C15.3687 25.5614 15.3646 25.5531 15.4508 25.4952C15.7779 25.2772 16.3732 24.7848 17.6088 24.6483C17.5354 24.6928 17.4712 24.7514 17.42 24.8207C17.3543 24.9131 17.3078 25.0248 17.238 25.1779C17.1573 25.3504 17.0957 25.5269 17.0232 25.6993C16.224 27.6055 15.433 29.4772 14.6366 31.3835C14.3725 32.0138 14.6079 32.5655 15.2524 32.869C15.7218 33.0897 16.2568 32.971 16.5716 32.5131C16.4813 32.829 16.4388 33.0993 16.5661 33.3614C16.6886 33.6176 16.9012 33.8187 17.1627 33.9255C17.42 34.04 17.7238 34.08 18.0043 34.0235C18.2903 33.9655 18.4805 33.7752 18.6269 33.4952C18.6516 34.1172 19.058 34.5724 19.7285 34.5724Z" fill="#595959"/>
</g>
<mask id="mask2_13_26" style="mask-type:luminance" maskUnits="userSpaceOnUse" x="-20" y="-20" width="195" height="80">
<path d="M-19.1004 -19.1876H174.851V59.0096H-19.1004V-19.1876Z" fill="white"/>
</mask>
<g mask="url(#mask2_13_26)">
<path d="M52.483 13.0841C53.5518 13.0841 55.733 12.9876 56.9797 12.9117C56.9474 13.1422 56.9282 13.3743 56.9222 13.6069C56.9222 13.7407 56.9619 14.051 56.9797 14.2621C55.811 14.1155 54.636 14.0257 53.4587 13.9931C53.0578 13.9931 51.5032 14.0303 50.6617 14.1076V18.9559H51.6373C53.6325 18.9559 57.8281 19.3407 57.8281 22.8345C57.8281 25.6717 55.4703 26.9655 52.3694 26.9462C52.0219 26.9462 50.7219 26.8896 49.8926 26.8896C49.5327 26.8896 49.0921 26.909 48.7842 26.9462C48.9019 24.8207 48.9374 21.8869 48.9374 19.4538C48.9374 17.2731 48.9224 13.971 48.7842 12.9103C50.0103 12.9696 52.0383 13.0841 52.483 13.0841ZM50.6617 25.8276C51.1598 25.8469 51.7509 25.8662 52.2887 25.8662C54.5507 25.8662 55.8671 24.8028 55.8671 22.8138C55.8671 20.6717 54.3003 19.9752 50.6617 19.9752V25.8276Z" fill="#595959"/>
</g>
<mask id="mask3_13_26" style="mask-type:luminance" maskUnits="userSpaceOnUse" x="-20" y="-20" width="195" height="80">
<path d="M-19.1004 -19.1876H174.851V59.0096H-19.1004V-19.1876Z" fill="white"/>
</mask>
<g mask="url(#mask3_13_26)">
<path d="M59.9984 18.3159C60.747 17.3917 62.1236 16.9876 63.2772 16.9876C65.2887 16.9876 66.6845 17.9876 66.6845 20.4014V25.1903C66.6845 26.1765 66.8939 26.4069 67.2948 26.4069C67.4331 26.4069 67.6424 26.3669 67.756 26.3283L67.8696 26.7931C67.4239 27.0209 66.9337 27.1467 66.4341 27.1614C65.8033 27.1614 65.4023 26.8717 65.2477 26.3103L65.1341 25.8883C64.0996 26.7172 62.9693 27.1614 62.0305 27.1614C60.2858 27.1614 59.1541 26.2331 59.1541 24.611C59.1541 22.8731 60.4404 22.0607 62.2016 21.7352L64.153 21.3669C64.8071 21.251 65.1546 21.0579 65.1546 20.5765C65.1546 18.4731 64.272 17.9324 62.816 17.9324C61.6871 17.9324 60.8414 18.2607 60.2297 19.5172H59.9984V18.3159ZM65.1546 21.9655L63.8875 22.1572C62.5081 22.371 60.9741 22.8524 60.9741 24.3228C60.9741 25.4414 61.5899 26.04 62.8324 26.04C63.6001 26.04 64.3664 25.7683 65.1546 24.9393V21.9655Z" fill="#595959"/>
</g>
<mask id="mask4_13_26" style="mask-type:luminance" maskUnits="userSpaceOnUse" x="-20" y="-20" width="195" height="80">
<path d="M-19.1004 -19.1876H174.851V59.0096H-19.1004V-19.1876Z" fill="white"/>
</mask>
<g mask="url(#mask4_13_26)">
<path fill-rule="evenodd" clip-rule="evenodd" d="M70.4956 17.2372C70.7063 17.2372 71.1059 17.1986 71.3932 17.1793C71.2413 18.6455 71.2194 21.0772 71.2194 21.1738C72.0254 21.2138 73.1914 21.2538 73.8099 21.2538C74.6146 21.2487 75.4191 21.222 76.2224 21.1738C76.2224 21.0593 76.2019 18.6276 76.0513 17.1793C76.3716 17.1986 76.7958 17.2372 77.0243 17.2372C77.2378 17.2372 77.6387 17.1986 77.9261 17.1793C77.7715 18.6276 77.7523 21.0579 77.7523 22.0621C77.7523 22.8731 77.7715 25.48 77.9261 26.9476C77.6333 26.9101 77.3386 26.8912 77.0435 26.891C76.7191 26.891 76.3346 26.9103 76.05 26.9476C76.2005 25.48 76.221 22.8731 76.221 22.2579C75.3781 22.1972 74.2286 22.1214 73.788 22.1214C73.2666 22.1214 71.9885 22.1558 71.2181 22.2152C71.2181 22.8731 71.24 25.4786 71.3919 26.9476C71.1 26.9102 70.8062 26.8913 70.512 26.891C70.1863 26.891 69.8031 26.9103 69.5144 26.9476C69.6663 25.48 69.6855 22.8731 69.6855 22.0621C69.6855 21.0772 69.6663 18.6276 69.5144 17.1793C69.8401 17.1972 70.2643 17.2372 70.4956 17.2372Z" fill="#595959"/>
</g>
<mask id="mask5_13_26" style="mask-type:luminance" maskUnits="userSpaceOnUse" x="-20" y="-20" width="195" height="80">
<path d="M-19.1004 -19.1876H174.851V59.0096H-19.1004V-19.1876Z" fill="white"/>
</mask>
<g mask="url(#mask5_13_26)">
<path fill-rule="evenodd" clip-rule="evenodd" d="M81.5072 17.2372C81.7125 17.2372 82.1162 17.1986 82.3994 17.1793C82.2517 18.6276 82.2339 21.0772 82.2339 21.4276H82.5431C83.174 21.4276 86.4103 17.7186 86.7182 17.1793C86.985 17.1986 87.4229 17.2372 87.6528 17.2372C87.8485 17.2372 88.3083 17.1986 88.5943 17.1793L84.0169 21.3103C84.5944 22.0041 87.635 25.4621 89.013 26.9476C88.6315 26.9159 88.2491 26.897 87.8663 26.891C87.5201 26.891 87.0028 26.9103 86.6019 26.9476C85.893 25.8276 83.7282 23.2607 82.5431 21.9462H82.2339C82.2339 22.6621 82.2517 25.48 82.3994 26.9476C82.1086 26.9099 81.8156 26.891 81.5223 26.891C81.2007 26.891 80.8176 26.9103 80.5247 26.9476C80.6821 25.48 80.704 22.8731 80.704 22.0621C80.704 21.0772 80.6821 18.6276 80.5247 17.1793C80.8545 17.1972 81.2774 17.2372 81.5072 17.2372Z" fill="#595959"/>
</g>
<mask id="mask6_13_26" style="mask-type:luminance" maskUnits="userSpaceOnUse" x="-20" y="-20" width="195" height="80">
<path d="M-19.1004 -19.1876H174.851V59.0096H-19.1004V-19.1876Z" fill="white"/>
</mask>
<g mask="url(#mask6_13_26)">
<path d="M97.4767 12.9696C98.1431 12.9696 99.0093 12.9117 99.5033 12.9117C103.048 12.9117 104.43 13.9931 104.43 16.4234C104.43 19.5738 101.802 20.5752 98.6864 20.5752C98.5126 20.5752 97.7819 20.5379 97.4165 20.4979V23.8359C97.4165 24.8014 97.4548 25.9807 97.5725 26.9462C96.8966 26.873 96.2149 26.873 95.539 26.9462C95.6567 24.8221 95.695 21.8855 95.695 19.4538C95.695 17.2731 95.6759 13.971 95.539 12.9103C96.174 12.9283 97.0361 12.9696 97.4767 12.9696ZM98.2225 19.5531C100.905 19.5531 102.476 18.4717 102.476 16.4234C102.476 14.5131 100.981 13.9931 99.1229 13.9931C98.8 13.9931 97.6861 14.011 97.4165 14.051V19.4731C97.6505 19.5159 98.0309 19.5531 98.2225 19.5531Z" fill="#595959"/>
</g>
<mask id="mask7_13_26" style="mask-type:luminance" maskUnits="userSpaceOnUse" x="-20" y="-20" width="195" height="80">
<path d="M-19.1004 -19.1876H174.851V59.0096H-19.1004V-19.1876Z" fill="white"/>
</mask>
<g mask="url(#mask7_13_26)">
<path d="M114.405 22.0041C114.405 24.96 112.503 27.16 109.501 27.16C106.552 27.16 104.71 24.9793 104.71 22.2759C104.71 19.0717 106.74 16.9876 109.672 16.9876C112.584 16.9876 114.405 19.1103 114.405 22.0041ZM106.532 22.2165C106.532 24.3986 107.432 26.4055 109.461 26.4055C111.415 26.4055 112.585 24.5131 112.585 21.9269C112.585 19.8414 111.779 17.7379 109.615 17.7379C107.546 17.7379 106.532 19.92 106.532 22.2165Z" fill="#595959"/>
</g>
<mask id="mask8_13_26" style="mask-type:luminance" maskUnits="userSpaceOnUse" x="-20" y="-20" width="195" height="80">
<path d="M-19.1004 -19.1876H174.851V59.0096H-19.1004V-19.1876Z" fill="white"/>
</mask>
<g mask="url(#mask8_13_26)">
<path fill-rule="evenodd" clip-rule="evenodd" d="M123.793 19.2814H123.562C122.891 18.1821 121.954 17.7379 120.9 17.7379C118.657 17.7379 117.586 19.92 117.586 22.0427C117.586 24.4938 118.924 26.4055 121.301 26.4055C122.089 26.4055 122.797 26.291 123.906 25.0731L124.08 25.2855L123.849 26.2317C122.925 26.851 121.896 27.16 120.708 27.16C117.718 27.16 115.766 25.0552 115.766 22.0814C115.766 18.9738 117.873 16.9876 120.956 16.9876C122.114 16.983 123.255 17.2749 124.27 17.8358L123.793 19.2814Z" fill="#595959"/>
</g>
<mask id="mask9_13_26" style="mask-type:luminance" maskUnits="userSpaceOnUse" x="-20" y="-20" width="195" height="80">
<path d="M-19.1004 -19.1876H174.851V59.0096H-19.1004V-19.1876Z" fill="white"/>
</mask>
<g mask="url(#mask9_13_26)">
<path fill-rule="evenodd" clip-rule="evenodd" d="M133.459 19.2814H133.232C132.564 18.1821 131.626 17.7379 130.573 17.7379C128.329 17.7379 127.256 19.92 127.256 22.0428C127.256 24.4938 128.601 26.4055 130.974 26.4055C131.756 26.4055 132.467 26.291 133.577 25.0731L133.747 25.2855L133.52 26.2317C132.601 26.851 131.564 27.16 130.379 27.16C127.392 27.16 125.439 25.0552 125.439 22.0814C125.439 18.9738 127.548 16.9876 130.631 16.9876C131.627 16.9876 132.718 17.1793 133.944 17.8359L133.459 19.2814Z" fill="#595959"/>
</g>
<mask id="mask10_13_26" style="mask-type:luminance" maskUnits="userSpaceOnUse" x="-20" y="-20" width="195" height="80">
<path d="M-19.1004 -19.1876H174.851V59.0096H-19.1004V-19.1876Z" fill="white"/>
</mask>
<g mask="url(#mask10_13_26)">
<path fill-rule="evenodd" clip-rule="evenodd" d="M136.3 26.891C136.184 26.891 135.839 26.9255 135.686 26.9476C135.839 25.48 135.86 22.8731 135.86 22.0621C135.86 21.0772 135.839 18.6276 135.686 17.1793C136.013 17.1986 136.432 17.2372 136.661 17.2372C136.872 17.2372 137.273 17.1986 137.563 17.1793C137.41 18.6276 137.394 21.0579 137.394 22.0621C137.394 22.8731 137.41 24.011 137.428 24.5531C138.483 23.2607 142.238 18.4538 143.14 17.1793C143.343 17.2165 143.479 17.2372 143.71 17.2372C143.824 17.2372 144.225 17.1986 144.44 17.1793C144.285 18.6276 144.263 21.0579 144.263 22.0621C144.263 22.8731 144.285 25.48 144.44 26.9476C144.147 26.9104 143.853 26.8915 143.558 26.891C143.231 26.891 142.851 26.9103 142.559 26.9476C142.713 25.48 142.735 22.8731 142.735 22.0621C142.735 21.0565 142.713 19.8248 142.699 19.4165C141.392 20.7503 137.942 25.3076 136.854 26.9476C136.672 26.9081 136.486 26.8891 136.3 26.891Z" fill="#595959"/>
</g>
<mask id="mask11_13_26" style="mask-type:luminance" maskUnits="userSpaceOnUse" x="-20" y="-20" width="195" height="80">
<path d="M-19.1004 -19.1876H174.851V59.0096H-19.1004V-19.1876Z" fill="white"/>
</mask>
<g mask="url(#mask11_13_26)">
<path fill-rule="evenodd" clip-rule="evenodd" d="M147.146 26.891C147.03 26.891 146.685 26.9255 146.536 26.9476C146.685 25.48 146.706 22.8731 146.706 22.0621C146.706 21.0772 146.685 18.6276 146.536 17.1793C146.859 17.1986 147.278 17.2372 147.508 17.2372C147.718 17.2372 148.122 17.1986 148.409 17.1793C148.256 18.6276 148.24 21.0579 148.24 22.0621C148.24 22.8731 148.256 24.011 148.274 24.5531C149.329 23.2607 153.08 18.4538 153.98 17.1793C154.191 17.2165 154.326 17.2372 154.556 17.2372C154.67 17.2372 155.075 17.1986 155.283 17.1793C155.135 18.6276 155.113 21.0579 155.113 22.0621C155.113 22.8731 155.135 25.48 155.283 26.9476C154.991 26.9102 154.696 26.8913 154.402 26.891C154.077 26.891 153.691 26.9103 153.408 26.9476C153.561 25.48 153.578 22.8731 153.578 22.0621C153.578 21.0565 153.561 19.8248 153.544 19.4165C152.241 20.7503 148.787 25.3076 147.696 26.9476C147.516 26.9077 147.331 26.8888 147.146 26.891Z" fill="#595959"/>
</g>
</g>
<defs>
<clipPath id="clip0_13_26">
<rect width="156" height="40" fill="white"/>
</clipPath>
</defs>
</svg>
