<svg width="61" height="61" viewBox="0 0 61 61" fill="none" xmlns="http://www.w3.org/2000/svg">
<path d="M30.4941 0C13.6536 0 0 13.6569 0 30.4989C0 47.3431 13.6536 61 30.4941 61C47.3432 61 60.9969 47.3431 60.9969 30.4989C60.9969 13.6569 47.3432 0 30.4941 0ZM30.4941 58.6435C14.9512 58.6435 2.35629 46.0432 2.35629 30.4989C2.35629 14.9546 14.9512 2.3565 30.4941 2.3565C46.0414 2.3565 58.6384 14.9546 58.6384 30.4989C58.6384 46.0432 46.0414 58.6435 30.4941 58.6435Z" fill="#595959"/>
<path fill-rule="evenodd" clip-rule="evenodd" d="M30.4941 53.3753C31.5486 53.3753 32.1877 52.6651 32.2264 51.6945C32.4566 52.1314 32.7558 52.4284 33.2055 52.5187C33.6466 52.607 34.1243 52.5446 34.5289 52.366C34.9401 52.1993 35.2745 51.8855 35.4671 51.4858C35.6672 51.0769 35.6005 50.6529 35.4585 50.1623C35.9534 50.8767 36.7948 51.0618 37.5329 50.7175C38.5464 50.244 38.9166 49.3832 38.5012 48.3997C37.2489 45.4256 36.0051 42.5052 34.7484 39.5311C34.6343 39.2621 34.5375 38.9866 34.4105 38.7176C34.3008 38.4809 34.2255 38.3066 34.1222 38.1602C34.0419 38.0527 33.9418 37.9614 33.8274 37.8912C35.7705 38.1064 36.7044 38.8726 37.2209 39.2126C37.3564 39.303 37.35 39.3159 37.8751 39.1523C37.9905 39.118 38.1115 39.107 38.2312 39.12C38.3509 39.1329 38.4668 39.1695 38.5723 39.2277C38.8068 39.3589 39.0478 39.501 39.2522 39.6624C39.9516 40.2068 40.6617 40.7319 41.3202 41.3195C41.6279 41.5928 42.0712 42.0641 42.0088 42.4837C41.9593 42.8797 41.0039 43.7857 40.7198 44.0547C40.042 44.6982 41.0663 45.9033 42.4349 45.7914C42.069 45.4084 41.983 45.0834 42.0282 44.795C42.1659 44.7929 42.4263 44.8187 42.6716 44.5992C42.9664 44.3323 42.833 43.549 43.1084 43.2821C43.5883 42.813 45.1613 42.7699 46.1038 42.729C46.4976 42.714 46.9129 42.6064 46.8828 41.9909C47.481 42.0318 47.6058 42.4773 47.6058 42.8775C48.1179 42.5849 48.5612 41.1903 46.6611 40.8697C46.9818 40.5813 47.5133 40.4715 47.8425 40.8439C48.1502 40.3317 47.3712 39.3267 45.9639 39.8948C45.9661 39.8883 45.3334 39.0576 43.4312 41.1882C43.1923 41.0074 42.9535 40.8309 42.7361 40.6286C42.0023 39.9572 40.1474 38.1452 40.1474 38.1452C40.1474 37.1251 39.9946 35.1495 38.6476 33.9659C38.073 33.4623 37.5264 33.1954 36.3106 32.9738C36.3106 32.9738 36.8981 32.0527 36.9906 31.6912C38.0493 32.75 40.1775 33.0663 40.1775 31.278C41.912 33.0168 43.5237 32.0807 43.5237 30.9896C43.5775 31.5211 43.7131 32.1065 43.8938 32.6079C44.1112 33.1911 44.9052 35.4314 46.9559 35.4314C47.0033 36.2083 47.0076 38.7714 49.4586 39.3417C49.5618 39.3697 49.6974 39.4041 49.7641 39.4859C50.7518 40.7147 54.8662 42.0103 55.3697 41.6616C55.0491 41.4335 54.5456 41.1301 54.466 39.6839C54.4143 38.7305 54.3089 33.7808 54.3089 26.806C54.3089 24.3397 54.0442 16.3449 46.1404 15.2301C44.9418 15.0601 43.7626 15.1505 42.7404 15.9101C41.3503 16.9474 40.666 18.6992 41.4837 20.6791C41.5096 20.7501 41.5311 20.8211 41.5677 20.8835C41.8452 21.3548 41.7334 21.7637 41.3718 22.1231C40.7112 22.7774 39.943 23.2207 39.0177 23.3283C38.4324 23.395 37.9504 23.1389 37.563 22.7386C36.6765 21.8261 36.0524 20.7544 35.8566 19.4912C35.4822 17.0852 36.0847 15.8929 36.1191 15.8176C36.7625 14.5285 38.129 13.5816 39.7106 13.446C40.4358 12.0902 42.5166 12.6261 42.5166 12.6261C43.0374 12.7402 43.2203 12.8908 43.3516 13.1469C43.3516 13.1469 44.2639 11.7545 43.4032 11.1971C42.5446 10.6398 40.6187 10.4095 40.6187 10.4095C40.6187 9.50348 39.121 8.7976 36.4139 9.28181C33.1409 9.86502 32.4394 8.5867 32.4394 8.5867C32.3039 10.1534 33.4982 10.9604 33.8833 11.1799C32.6417 12.5271 30.9073 15.2193 30.4941 19.0392C30.081 15.2193 28.3466 12.5271 27.1049 11.1799C27.488 10.9604 28.6844 10.1534 28.5489 8.5867C28.5489 8.5867 27.8452 9.86502 24.5722 9.28181C21.8673 8.7976 20.3696 9.50348 20.3696 10.4095C20.3696 10.4095 18.4437 10.6398 17.5829 11.1971C16.7243 11.7545 17.6346 13.1469 17.6346 13.1469C17.768 12.8908 17.9509 12.7402 18.4717 12.6261C18.4717 12.6261 20.5525 12.0902 21.2777 13.446C22.8593 13.5816 24.2258 14.5285 24.8692 15.8176C24.9036 15.8929 25.5427 17.0959 25.1317 19.4912C24.9143 20.7523 24.3118 21.8261 23.4253 22.7386C23.0379 23.1389 22.5559 23.395 21.9706 23.3283C21.0453 23.2207 20.2771 22.7774 19.6164 22.1231C19.2549 21.7637 19.143 21.3548 19.4206 20.8835C19.4572 20.8211 19.4787 20.7501 19.5046 20.6791C20.3223 18.6992 19.638 16.9474 18.2479 15.9101C17.2257 15.1505 16.0465 15.0601 14.8479 15.2301C6.9441 16.3449 6.67727 24.3397 6.67727 26.806C6.67727 33.7808 6.57182 38.7305 6.52018 39.6839C6.44056 41.1301 5.93702 41.4314 5.61639 41.6616C6.12208 42.0103 10.2343 40.7169 11.2242 39.4859C11.2909 39.4041 11.4264 39.3675 11.5297 39.3417C13.9807 38.7693 13.985 36.2083 14.0324 35.4314C16.0831 35.4314 16.8771 33.1911 17.0945 32.6079C17.2752 32.1065 17.4108 31.5211 17.4646 30.9896C17.4646 32.0807 19.0763 33.0147 20.8107 31.278C20.8107 33.0663 22.9389 32.7521 23.9977 31.6912C24.0902 32.0527 24.6776 32.9738 24.6776 32.9738C23.4618 33.1954 22.9153 33.4623 22.3386 33.9659C20.9936 35.1517 20.8409 37.1273 20.8409 38.1452C20.8409 38.1452 18.986 39.9594 18.2522 40.6286C18.0348 40.8309 17.796 41.0074 17.5571 41.1882C15.6549 39.0598 15.0201 39.8883 15.0244 39.8948C13.617 39.3267 12.8381 40.3317 13.1458 40.8439C13.4729 40.4715 14.0065 40.5813 14.3272 40.8697C12.4271 41.1882 12.8682 42.5849 13.3825 42.8775C13.3825 42.4751 13.5051 42.0296 14.1055 41.9909C14.0754 42.6064 14.4907 42.714 14.8845 42.729C15.8249 42.7699 17.3979 42.813 17.8799 43.2821C18.1532 43.549 18.0198 44.3323 18.3167 44.5992C18.562 44.8187 18.8224 44.7929 18.958 44.795C19.0032 45.0834 18.9192 45.4084 18.5534 45.7914C19.922 45.9055 20.9463 44.6982 20.2685 44.0547C19.9844 43.7857 19.0268 42.8775 18.9795 42.4837C18.9171 42.0641 19.3604 41.5928 19.6681 41.3195C20.3266 40.7341 21.0367 40.2068 21.736 39.6624C21.9405 39.501 22.1815 39.3568 22.416 39.2277C22.5214 39.1695 22.6374 39.1329 22.7571 39.12C22.8768 39.107 22.9978 39.118 23.1132 39.1523C23.6383 39.3159 23.6318 39.303 23.7674 39.2126C24.2817 38.8726 25.2178 38.1043 27.1609 37.8912C27.0454 37.9607 26.9445 38.0521 26.8639 38.1602C26.7607 38.3044 26.6875 38.4787 26.5777 38.7176C26.4508 38.9866 26.354 39.2621 26.2399 39.5311C24.9832 42.5052 23.7394 45.4256 22.487 48.3997C22.0717 49.3832 22.4419 50.244 23.4554 50.7175C24.1935 51.0618 25.0349 50.8767 25.5298 50.1623C25.3878 50.6551 25.3211 51.0769 25.5212 51.4858C25.7137 51.8855 26.0482 52.1993 26.4594 52.366C26.8639 52.5446 27.3417 52.607 27.7828 52.5187C28.2325 52.4284 28.5316 52.1314 28.7619 51.6945C28.8006 52.6651 29.4397 53.3753 30.4941 53.3753Z" fill="#595959"/>
</svg>
